<svg xmlns="http://www.w3.org/2000/svg" width="18.122" height="18.122" viewBox="0 0 18.122 18.122">
  <g id="up-arrow_1_" data-name="up-arrow (1)" transform="translate(0 18.122) rotate(-90)">
    <g id="Group_7" data-name="Group 7" transform="translate(0 0)">
      <g id="Group_6" data-name="Group 6">
        <path id="Path_246206" data-name="Path 246206" d="M9.061,18.122A9.061,9.061,0,1,0,0,9.061,9.071,9.071,0,0,0,9.061,18.122Zm0-16.718A7.657,7.657,0,1,1,1.4,9.061,7.666,7.666,0,0,1,9.061,1.4Z" fill="#ff8e01"/>
      </g>
    </g>
    <g id="Group_9" data-name="Group 9" transform="translate(4.849 6.899)">
      <g id="Group_8" data-name="Group 8" transform="translate(0 0)">
        <path id="Path_246207" data-name="Path 246207" d="M.2,1.194,3.713,4.7a.7.7,0,0,0,.99,0L8.212,1.194A.7.7,0,0,0,7.223.2L4.212,3.215,1.194.2a.7.7,0,0,0-.99.99Z" fill="#ff8e01"/>
      </g>
    </g>
  </g>
</svg>
